<svg width="22" height="20" viewBox="0 0 22 20" fill="none" xmlns="http://www.w3.org/2000/svg">
<path d="M10.2408 15.7373C10.0086 15.5096 9.91818 13.7243 9.91818 9.36696V3.31288L7.79818 5.33502C5.53912 7.48981 5.35159 7.58697 4.69464 6.94304C4.08111 6.34169 4.0063 6.45097 7.4349 2.94061C11.2581 -0.973776 10.7164 -0.970006 14.556 2.89094C17.9192 6.27286 17.942 6.30652 17.2926 6.94302C16.6356 7.58694 16.4481 7.48978 14.189 5.335L12.069 3.31286V9.36693C12.069 15.5784 11.9926 16.0535 10.9936 16.0535C10.757 16.0535 10.4183 15.9112 10.2408 15.7372V15.7373Z" fill="#303030"/>
<path d="M1.90186 12.3778C1.90186 11.9521 1.47612 11.6071 0.950934 11.6071C0.425748 11.6071 0 11.9521 0 12.3778V19.2292C0 19.6549 0.425748 20 0.950934 20C1.47612 20 1.90186 19.6549 1.90186 19.2292V12.3778Z" fill="#303030"/>
<path d="M21.4971 12.3778C21.4971 11.9521 21.0713 11.6071 20.5461 11.6071C20.021 11.6071 19.5952 11.9521 19.5952 12.3778V19.2292C19.5952 19.6549 20.021 20 20.5461 20C21.0713 20 21.4971 19.6549 21.4971 19.2292V12.3778Z" fill="#303030"/>
<path d="M21.4968 17.9446H0V20H21.4968V17.9446Z" fill="#303030"/>
<path d="M3.85469 19.058H3.76904V19.4006H3.85469V19.058Z" fill="#303030"/>
</svg>
